HIERARCHY
ROOT Hips
{
	OFFSET 0.000000 0.000000 0.000000
	CHANNELS 6 Xposition Yposition Zposition Zrotation Yrotation Xrotation 
	JOINT LowerBack
	{
		OFFSET 0.000000 0.000000 0.000000
		CHANNELS 3 Zrotation Yrotation Xrotation
		JOINT Spine
		{
			OFFSET 0.028270 2.035590 -0.193380
			CHANNELS 3 Zrotation Yrotation Xrotation
			JOINT Spine1
			{
				OFFSET 0.056720 2.048850 -0.042750
				CHANNELS 3 Zrotation Yrotation Xrotation
				JOINT Neck
				{
					OFFSET 0.000000 0.000000 0.000000
					CHANNELS 3 Zrotation Yrotation Xrotation
					JOINT Neck1
					{
						OFFSET -0.054170 1.746240 0.172020
						CHANNELS 3 Zrotation Yrotation Xrotation
						JOINT Head
						{
							OFFSET 0.104070 1.761360 -0.123970
							CHANNELS 3 Zrotation Yrotation Xrotation
							End Site
							{
								OFFSET 0.000000 0.000000 0.000000
							}
						}
					}
				}
				JOINT LeftShoulder
				{
					OFFSET 0.000000 0.000000 0.000000
					CHANNELS 3 Zrotation Yrotation Xrotation
					JOINT LeftArm
					{
						OFFSET 3.362410 1.200890 -0.311210
						CHANNELS 3 Zrotation Yrotation Xrotation
						JOINT LeftForeArm
						{
							OFFSET 4.983000 -0.000000 -0.000000
							CHANNELS 3 Zrotation Yrotation Xrotation
							JOINT LeftHand
							{
								OFFSET 3.483560 -0.000000 -0.000000
								CHANNELS 3 Zrotation Yrotation Xrotation
								JOINT LeftFingerBase
								{
									OFFSET 0.000000 0.000000 0.000000
									CHANNELS 3 Zrotation Yrotation Xrotation
									JOINT LeftHandIndex1
									{
										OFFSET 0.715260 -0.000000 -0.000000
										CHANNELS 3 Zrotation Yrotation Xrotation
										End Site
										{
											OFFSET 0.000000 0.000000 0.000000
										}
									}
								}
								JOINT LThumb
								{
									OFFSET 0.000000 0.000000 0.000000
									CHANNELS 3 Zrotation Yrotation Xrotation
									End Site
									{
										OFFSET 0.000000 0.000000 0.000000
									}
								}
							}
						}
					}
				}
				JOINT RightShoulder
				{
					OFFSET 0.000000 0.000000 0.000000
					CHANNELS 3 Zrotation Yrotation Xrotation
					JOINT RightArm
					{
						OFFSET -3.136600 1.374050 -0.404650
						CHANNELS 3 Zrotation Yrotation Xrotation
						JOINT RightForeArm
						{
							OFFSET -5.241900 -0.000000 -0.000000
							CHANNELS 3 Zrotation Yrotation Xrotation
							JOINT RightHand
							{
								OFFSET -3.444170 -0.000000 -0.000000
								CHANNELS 3 Zrotation Yrotation Xrotation
								JOINT RightFingerBase
								{
									OFFSET 0.000000 0.000000 0.000000
									CHANNELS 3 Zrotation Yrotation Xrotation
									JOINT RightHandIndex1
									{
										OFFSET -0.622530 -0.000000 -0.000000
										CHANNELS 3 Zrotation Yrotation Xrotation
										End Site
										{
											OFFSET 0.000000 0.000000 0.000000
										}
									}
								}
								JOINT RThumb
								{
									OFFSET 0.000000 0.000000 0.000000
									CHANNELS 3 Zrotation Yrotation Xrotation
									End Site
									{
										OFFSET 0.000000 0.000000 0.000000
									}
								}
							}
						}
					}
				}
			}
		}
	}
}
}
MOTION
Frames: 10
Frame Time: 0.008333
-2.253834 16.524769 -0.853606 -153.631964 71.935368 -149.588535 4.327168 0.524455 2.472964 -0.231049 0.314269 -2.775212 -7.125652 0.270085 -0.285829 9.400384 -2.950526 -5.438614 -3.912282 -0.320737 0.562782 0.000000 0.000000 0.000000 -6.683353 9.198029 2.363173 -70.194048 16.444510 7.126676 -3.486551 -12.149183 -0.011337 -1.149389 9.164438 -0.088005 -0.061416 -0.057968 -0.000000 0.000000 0.000000 0.000000 0.000000 0.000000 0.000000 15.817671 2.222129 0.615660 56.611389 19.649838 11.127988 1.773070 48.259814 -0.001633 -3.492834 6.830001 -0.219765 0.085399 -0.225631 -0.000000 0.000000 0.000000 0.000000 0.000000 0.000000 0.000000 
-2.061806 16.496659 -0.953581 -154.597705 71.171571 -150.603783 4.214968 0.444987 2.273053 -0.258217 0.232488 -2.802195 -7.181294 0.188242 -0.234602 9.561535 -3.100100 -5.501024 -3.933859 -0.321942 0.547088 0.000000 0.000000 0.000000 -6.586329 9.270154 2.296939 -69.681642 16.292261 7.956343 -3.502273 -13.195293 -0.012284 -1.612157 9.297473 -0.127001 -0.063375 -0.059286 -0.000000 0.000000 0.000000 0.000000 0.000000 0.000000 0.000000 16.124967 1.998913 0.645144 56.510893 18.856397 11.284865 1.847569 47.588670 0.000039 -3.199606 6.885698 -0.202964 0.084932 -0.216607 -0.000000 0.000000 0.000000 0.000000 0.000000 0.000000 0.000000 
-1.873130 16.470929 -1.051667 -155.786018 70.319489 -151.679499 4.053651 0.337155 1.985785 -0.292779 0.120543 -2.843758 -7.235816 0.075550 -0.178651 9.716208 -3.257475 -5.585844 -3.955999 -0.323040 0.525892 0.000000 0.000000 0.000000 -6.536290 9.340900 2.235228 -69.064928 16.021920 8.863305 -3.515692 -14.346580 -0.013142 -2.067144 9.357647 -0.165191 -0.065340 -0.060066 -0.000000 0.000000 0.000000 0.000000 0.000000 0.000000 0.000000 16.428344 1.755473 0.674205 56.485224 18.042574 11.380089 1.927648 46.815175 0.001650 -2.923191 6.973116 -0.187863 0.084848 -0.207666 -0.000000 0.000000 0.000000 0.000000 0.000000 0.000000 0.000000 
-1.688989 16.448325 -1.147900 -157.153632 69.369195 -152.780241 3.851604 0.204327 1.629564 -0.333051 -0.017895 -2.895040 -7.286080 -0.064165 -0.114600 9.853939 -3.426271 -5.697491 -3.977245 -0.323839 0.497685 0.000000 0.000000 0.000000 -6.524795 9.421334 2.180840 -68.365361 15.570138 9.805659 -3.524804 -15.532996 -0.013785 -2.456118 9.327105 -0.196476 -0.067263 -0.059966 -0.000000 0.000000 0.000000 0.000000 0.000000 0.000000 0.000000 16.709977 1.489349 0.700866 56.538531 17.214346 11.386562 2.011765 45.937144 0.003137 -2.688797 7.090625 -0.175761 0.085339 -0.198940 -0.000000 0.000000 0.000000 0.000000 0.000000 0.000000 0.000000 
-1.510176 16.429508 -1.242390 -158.649609 68.316410 -153.870536 3.617894 0.052473 1.222950 -0.377507 -0.176310 -2.953852 -7.331147 -0.224497 -0.049465 9.965561 -3.605461 -5.828057 -3.996970 -0.324365 0.464479 0.000000 0.000000 0.000000 -6.547592 9.468222 2.136416 -67.613603 14.950897 10.685424 -3.529499 -16.730297 -0.014114 -2.724761 9.201152 -0.215351 -0.069116 -0.058889 -0.000000 0.000000 0.000000 0.000000 0.000000 0.000000 0.000000 16.955280 1.200899 0.727957 56.674809 16.362803 11.276543 2.099553 44.952447 0.004471 -2.513489 7.230157 -0.167659 0.086539 -0.190500 -0.000000 0.000000 0.000000 0.000000 0.000000 0.000000 0.000000 
-1.337445 16.415054 -1.335692 -160.196491 67.161760 -154.901264 3.373732 -0.110896 0.792791 -0.422094 -0.346850 -3.014827 -7.368746 -0.397387 0.017193 10.041373 -3.793764 -5.975432 -4.013892 -0.324490 0.426489 0.000000 0.000000 0.000000 -6.594425 9.483009 2.103251 -66.844484 14.133402 11.466051 -3.528218 -17.891934 -0.014043 -2.827499 8.977889 -0.218018 -0.070819 -0.056642 -0.000000 0.000000 0.000000 0.000000 0.000000 0.000000 0.000000 17.147529 0.892307 0.754866 56.892054 15.485685 11.030792 2.190070 43.859427 0.005634 -2.409438 7.382132 -0.164159 0.088473 -0.182326 -0.000000 0.000000 0.000000 0.000000 0.000000 0.000000 0.000000 
-1.171145 16.405369 -1.428420 -161.725426 65.912905 -155.840765 3.139198 -0.277565 0.367883 -0.463185 -0.520837 -3.073314 -7.398071 -0.573976 0.082174 10.075110 -3.986423 -6.132153 -4.027390 -0.324193 0.385431 0.000000 0.000000 0.000000 -6.656821 9.452587 2.081629 -66.092108 13.122174 12.107896 -3.520120 -18.998016 -0.013542 -2.733552 8.662151 -0.202973 -0.072292 -0.053193 -0.000000 0.000000 0.000000 0.000000 0.000000 0.000000 0.000000 17.276314 0.568533 0.782823 57.185067 14.576001 10.634301 2.283053 42.656375 0.006630 -2.376936 7.532334 -0.165261 0.091051 -0.174332 -0.000000 0.000000 0.000000 0.000000 0.000000 0.000000 0.000000 
-1.011225 16.400786 -1.521361 -163.177449 64.581727 -156.669281 2.932380 -0.439184 -0.027374 -0.497872 -0.689720 -3.126072 -7.420378 -0.745519 0.140140 10.065621 -4.192843 -6.288466 -4.037896 -0.323590 0.343830 0.000000 0.000000 0.000000 -6.733413 9.337204 2.068751 -65.383766 11.974284 12.556173 -3.504095 -20.072066 -0.012645 -2.430784 8.265717 -0.171421 -0.073409 -0.048764 -0.000000 0.000000 0.000000 0.000000 0.000000 0.000000 0.000000 17.344557 0.218079 0.816753 57.538511 13.647845 10.105129 2.380036 41.329953 0.007480 -2.414165 7.663724 -0.170767 0.094287 -0.166361 0.000000 0.000000 0.000000 0.000000 0.000000 0.000000 0.000000 
-0.857594 16.401365 -1.615336 -164.501104 63.184278 -157.381677 2.772236 -0.589523 -0.363895 -0.522565 -0.847136 -3.167158 -7.434425 -0.905315 0.194959 10.010455 -4.358287 -6.437509 -4.044631 -0.322560 0.302896 0.000000 0.000000 0.000000 -6.803099 9.224931 2.066899 -64.741955 10.598940 12.914644 -3.479975 -21.046407 -0.011418 -1.921376 7.785506 -0.126463 -0.074261 -0.043031 -0.000000 0.000000 0.000000 0.000000 0.000000 0.000000 0.000000 17.337384 -0.096892 0.847796 57.956114 12.635784 9.367637 2.477651 39.915927 0.008195 -2.469970 7.753801 -0.176581 0.097336 -0.158303 0.000000 0.000000 0.000000 0.000000 0.000000 0.000000 0.000000 
-0.709074 16.407198 -1.711121 -165.677019 61.736099 -157.980653 2.668338 -0.722063 -0.642772 -0.536478 -0.987381 -3.199045 -7.445189 -1.047586 0.236988 9.921131 -4.549182 -6.568765 -4.049967 -0.321521 0.266164 0.000000 0.000000 0.000000 -6.885746 8.987214 2.065136 -64.172239 9.202912 13.053615 -3.445673 -22.061012 -0.010013 -1.235100 7.247706 -0.073802 -0.074637 -0.036897 -0.000000 0.000000 0.000000 0.000000 0.000000 0.000000 0.000000 17.290823 -0.451760 0.891713 58.396354 11.629853 8.544381 2.582857 38.363198 0.008811 -2.556435 7.783132 -0.183301 0.100815 -0.149895 0.000000 0.000000 0.000000 0.000000 0.000000 0.000000 0.000000 
